<?xml version="1.0" standalone="no"?>
<!DOCTYPE svg PUBLIC "-//W3C//DTD SVG 20010904//EN"
 "http://www.w3.org/TR/2001/REC-SVG-20010904/DTD/svg10.dtd">
<svg version="1.0" xmlns="http://www.w3.org/2000/svg"
 width="750.000000pt" height="750.000000pt" viewBox="0 0 750.000000 750.000000"
 preserveAspectRatio="xMidYMid meet">
<metadata>
Created by potrace 1.11, written by Peter Selinger 2001-2013
</metadata>
<g transform="translate(0.000000,750.000000) scale(0.100000,-0.100000)"
fill="#000000" stroke="none">
<path d="M3852 5960 c-75 -25 -121 -66 -159 -142 -43 -84 -57 -193 -28 -214
10 -8 31 -14 47 -14 15 0 28 -4 28 -10 0 -5 5 -10 11 -10 6 0 8 7 5 16 -5 12
-1 14 17 8 12 -4 45 -7 72 -8 42 -1 50 -4 47 -18 -2 -11 3 -18 14 -18 11 0 14
5 10 16 -5 13 -1 15 22 10 15 -3 56 -10 92 -17 79 -13 109 -27 89 -40 -12 -8
-12 -11 1 -19 13 -9 12 -13 -9 -30 -13 -11 -21 -24 -17 -28 4 -4 21 8 37 26
16 17 35 32 43 32 73 0 120 153 81 269 -24 74 -83 144 -137 164 -23 8 -61 22
-83 31 -53 20 -117 19 -183 -4z"/>
<path d="M3807 5563 c-23 -37 -27 -121 -6 -108 4 3 6 11 3 18 -2 7 2 32 10 55
8 23 11 42 6 42 -5 0 -11 -3 -13 -7z"/>
<path d="M3691 5468 c0 -26 4 -50 9 -53 11 -7 11 25 0 70 -7 27 -8 25 -9 -17z"/>
<path d="M3808 5393 c7 -3 16 -2 19 1 4 3 -2 6 -13 5 -11 0 -14 -3 -6 -6z"/>
<path d="M4023 5365 c-82 -64 -216 -70 -273 -12 -39 40 -48 30 -11 -13 27 -33
32 -35 106 -38 43 -3 94 1 115 7 41 12 120 66 120 81 0 16 -12 11 -57 -25z"/>
<path d="M4085 5318 c4 -13 20 -45 36 -72 35 -57 33 -61 -48 -102 -51 -25 -69
-29 -143 -29 -72 0 -94 5 -148 29 -57 27 -112 74 -112 97 0 5 13 9 29 9 17 0
33 5 37 12 5 8 -9 9 -55 5 -135 -14 -314 -154 -388 -302 -24 -48 -45 -138 -73
-305 -25 -151 -63 -329 -92 -428 -25 -85 -17 -118 29 -127 15 -3 47 -10 71
-15 24 -6 47 -8 51 -5 5 2 7 -14 5 -38 -2 -23 -5 -79 -8 -125 -3 -56 -13 -106
-32 -158 -18 -49 -24 -78 -17 -82 6 -4 11 -20 12 -37 0 -16 4 -60 7 -97 5 -61
4 -67 -15 -73 -25 -8 -27 -35 -5 -77 25 -49 3 -56 -44 -13 -50 45 -65 86 -60
170 4 80 -8 95 -17 21 -11 -82 9 -150 57 -198 26 -26 46 -38 61 -36 23 3 24
13 12 88 -5 32 -4 33 6 10 6 -14 14 -32 18 -40 4 -8 26 -19 49 -24 l41 -10 -1
-406 c0 -223 3 -437 6 -475 31 -328 39 -385 68 -483 17 -56 35 -102 40 -102
12 0 10 14 -12 70 -29 75 -38 121 -61 323 -17 152 -21 266 -24 697 -2 283 -2
557 2 608 5 85 7 91 22 78 10 -9 51 -20 92 -26 74 -10 243 -61 351 -106 87
-36 155 -34 317 11 30 8 56 13 58 12 12 -13 17 -178 11 -381 -16 -561 -29
-912 -39 -1071 -6 -101 -7 -180 -2 -194 16 -42 52 830 58 1409 l2 245 36 36
c42 42 55 84 64 201 6 84 7 87 33 93 18 4 40 -2 71 -19 45 -26 109 -35 109
-15 0 6 19 30 43 52 50 50 122 176 137 242 13 56 -14 185 -65 310 -18 44 -38
105 -45 135 -16 70 -56 158 -118 263 -27 45 -54 96 -61 114 -20 50 -192 197
-255 219 -24 8 -38 24 -61 72 -30 61 -53 83 -40 40z m-55 -928 c6 -10 10 -30
10 -45 l0 -26 -42 25 c-24 14 -63 28 -88 32 -62 10 -96 44 -44 44 22 0 25 -2
14 -15 -18 -21 5 -19 49 4 40 21 84 13 101 -19z m-270 23 c-1 -5 -15 -24 -32
-43 -32 -36 -28 -24 7 23 21 28 25 31 25 20z m77 -30 c2 -6 -8 -14 -22 -17
-30 -8 -104 -72 -115 -101 -8 -19 -9 -19 -9 3 -1 13 21 50 51 87 48 60 53 64
72 52 11 -8 21 -18 23 -24z m145 -54 c33 -17 68 -61 68 -86 0 -5 -39 -9 -87
-8 -49 0 -125 -4 -170 -9 -74 -8 -83 -7 -83 8 0 27 71 95 115 111 47 17 103
11 157 -16z m87 -46 c0 -25 -1 -26 -9 -8 -12 27 -12 35 0 35 6 0 10 -12 9 -27z
m-39 -69 c24 -5 36 -15 46 -40 17 -41 17 -44 1 -44 -8 0 -24 11 -37 25 -45 48
-103 53 -333 30 -36 -4 -48 -2 -45 7 3 9 33 13 97 14 50 1 94 4 98 8 8 8 131
8 173 0z m-37 -48 c18 -7 41 -23 51 -35 11 -11 31 -21 45 -21 14 0 33 -5 41
-10 11 -7 -3 -10 -47 -10 -55 0 -62 -2 -69 -22 -7 -26 -33 -58 -45 -58 -5 0
-6 8 -3 18 4 13 3 13 -7 -2 -9 -15 -9 -21 -1 -24 21 -7 13 -30 -12 -36 -14 -3
-28 -15 -31 -27 -6 -17 -13 -20 -38 -15 -18 3 -72 11 -122 17 -49 7 -93 15
-97 18 -8 7 10 191 19 201 17 19 275 24 316 6z m468 -52 c38 -19 66 -78 48
-101 -30 -36 -106 -76 -203 -108 -86 -29 -120 -35 -193 -36 -98 -1 -140 6
-165 29 -26 22 -22 42 12 53 22 8 30 17 30 34 0 13 6 28 14 32 8 4 15 17 17
28 4 17 13 20 74 23 79 3 99 14 69 37 -16 12 -11 12 31 -1 85 -27 114 -29 138
-6 40 35 81 41 128 16z"/>
<path d="M3775 4050 c-3 -5 -1 -10 6 -10 8 0 8 -4 -1 -15 -10 -12 -10 -15 3
-15 9 0 19 5 22 10 4 7 12 7 25 0 25 -13 60 -13 60 1 0 6 -9 8 -22 4 -19 -6
-21 -5 -10 6 19 21 14 30 -9 17 -17 -10 -23 -10 -26 0 -6 14 -39 16 -48 2z"/>
<path d="M3916 4034 c-7 -19 2 -37 15 -29 12 8 12 45 0 45 -5 0 -12 -7 -15
-16z"/>
<path d="M4242 3979 c-2 -43 0 -69 6 -65 5 3 10 25 11 48 1 24 2 52 4 62 1 10
-2 20 -8 22 -6 3 -11 -25 -13 -67z"/>
<path d="M4090 4022 c0 -13 83 -23 95 -11 5 5 -2 9 -20 9 -17 0 -40 3 -52 6
-13 4 -23 2 -23 -4z"/>
<path d="M3765 5280 c-5 -8 -15 -25 -23 -37 -8 -13 -10 -23 -4 -23 13 0 44 49
39 63 -2 7 -6 6 -12 -3z"/>
<path d="M3188 4084 c-5 -4 -8 -30 -8 -58 -1 -28 -13 -118 -29 -199 -28 -152
-27 -213 2 -84 39 175 59 366 35 341z"/>
<path d="M3725 2857 c0 -166 7 -383 14 -482 7 -99 11 -244 8 -323 -4 -109 -2
-141 7 -132 14 14 12 472 -3 575 -13 86 -14 456 -2 435 11 -19 38 -156 46
-230 3 -30 10 -181 15 -335 10 -282 14 -317 55 -410 28 -62 28 -26 1 46 -28
76 -33 127 -41 419 -7 248 -17 356 -45 472 -11 46 -20 95 -20 111 0 15 -4 27
-10 27 -6 0 -10 28 -10 65 0 36 -3 65 -7 65 -5 0 -8 -136 -8 -303z"/>
<path d="M3458 1841 c-76 -113 -103 -148 -123 -157 -24 -11 -49 -85 -41 -120
9 -33 62 -64 109 -64 99 0 186 49 201 114 7 27 31 53 118 130 29 26 50 97 29
104 -6 2 -11 13 -11 24 0 16 -4 18 -17 12 -22 -11 -90 -9 -168 3 l-60 9 -37
-55z m267 -67 c-9 -14 -38 -40 -64 -59 -45 -33 -60 -54 -76 -112 -9 -32 -54
-61 -123 -78 -55 -14 -64 -14 -98 0 -21 9 -42 21 -46 28 -11 18 -10 63 4 92
13 29 28 33 28 6 0 -30 28 -45 83 -45 61 -1 117 24 155 67 76 85 147 151 150
139 2 -7 -4 -24 -13 -38z"/>
<path d="M4095 1875 c-48 -16 -114 -19 -148 -6 -24 9 -24 8 -21 -32 2 -23 6
-73 9 -112 3 -38 5 -91 5 -116 -1 -55 11 -90 41 -118 18 -17 36 -21 83 -21
144 0 188 47 154 164 -7 22 -15 43 -18 46 -12 11 -30 78 -30 112 0 53 -11 98
-24 97 -6 -1 -29 -7 -51 -14z m114 -300 c1 -49 -22 -72 -85 -85 -31 -7 -71 -9
-90 -6 -40 8 -74 48 -74 88 0 28 1 29 22 14 15 -11 45 -16 86 -16 59 0 66 3
95 33 35 35 45 29 46 -28z"/>
</g>
</svg>
